<svg width="68" height="46" viewBox="0 0 68 46" fill="none" xmlns="http://www.w3.org/2000/svg">
<path d="M30.0845 8.78857H44.323V34.3729H30.0845V8.78857Z" fill="#FF5F00"/>
<path d="M30.9885 21.2317C30.9885 16.0336 33.4294 11.4229 37.181 8.43945C34.4239 6.2698 30.9434 4.95898 27.1465 4.95898C18.151 4.95898 10.8735 12.2364 10.8735 21.2317C10.8735 30.227 18.151 37.5045 27.1463 37.5045C30.9432 37.5045 34.4237 36.1936 37.181 34.0238C33.4294 31.0857 30.9885 26.4299 30.9885 21.2317Z" fill="#EB001B"/>
<path d="M63.5338 21.2317C63.5338 30.2268 56.2563 37.5045 47.2609 37.5045C43.4639 37.5045 39.9834 36.1936 37.2261 34.0238C41.0231 31.0406 43.4188 26.4299 43.4188 21.2317C43.4188 16.0336 40.9778 11.4229 37.2261 8.43945C39.9832 6.2698 43.4639 4.95898 47.2609 4.95898C56.2563 4.95898 63.5338 12.2817 63.5338 21.2317Z" fill="#F79E1B"/>
</svg>
