<svg width="68" height="23" viewBox="0 0 68 23" fill="none" xmlns="http://www.w3.org/2000/svg">
<path d="M35.2071 7.74466C35.1685 10.7958 37.9263 12.4984 40.0038 13.5108C42.1383 14.5494 42.8552 15.2155 42.8467 16.1444C42.8308 17.5659 41.1442 18.1933 39.5659 18.2176C36.8122 18.2603 35.2111 17.4742 33.9383 16.8796L32.9463 21.5213C34.2234 22.1098 36.5881 22.623 39.0402 22.6455C44.7962 22.6455 48.562 19.8042 48.5824 15.3988C48.6049 9.80783 40.849 9.49837 40.902 6.99935C40.9203 6.24159 41.6433 5.43296 43.2277 5.22736C44.012 5.1235 46.1769 5.04401 48.6314 6.17429L49.5948 1.68338C48.2748 1.20275 46.5783 0.742533 44.4661 0.742533C39.0484 0.742533 35.2379 3.62255 35.2071 7.74466ZM58.8516 1.12936C57.8006 1.12936 56.9148 1.74246 56.5195 2.6833L48.2973 22.3156H54.0491L55.1937 19.1524H62.2223L62.8863 22.3156H67.9559L63.532 1.12936H58.8516ZM59.6563 6.85257L61.3162 14.8083H56.7702L59.6563 6.85257ZM28.2334 1.12963L23.6995 22.3154H29.1806L33.7123 1.1291L28.2334 1.12963ZM20.1251 1.12963L14.4201 15.5496L12.1124 3.28845C11.8416 1.91971 10.7723 1.12936 9.58479 1.12936H0.259039L0.128418 1.74458C2.04295 2.16002 4.2182 2.83008 5.53607 3.54704C6.34258 3.985 6.57256 4.36786 6.83751 5.40859L11.2084 22.3156H17.0005L25.8806 1.12936L20.1251 1.12963Z" fill="url(#paint0_linear_193_1860)"/>
<defs>
<linearGradient id="paint0_linear_193_1860" x1="3118.43" y1="66.5829" x2="3181.83" y2="-2182.88" gradientUnits="userSpaceOnUse">
<stop stop-color="#222357"/>
<stop offset="1" stop-color="#254AA5"/>
</linearGradient>
</defs>
</svg>
