<svg width="42" height="40" viewBox="0 0 42 40" fill="none" xmlns="http://www.w3.org/2000/svg">
<path d="M17.6118 2.4613e-05C17.608 -8.20433e-06 17.6041 -8.20433e-06 17.6003 2.4613e-05C17.5759 0.00384076 17.5517 0.00889619 17.5278 0.0153286C17.467 0.0252304 17.4077 0.0433754 17.3511 0.0692213L0.605438 7.67606C0.435109 7.70613 0.280502 7.7998 0.169495 7.94027C0.0584878 8.08074 -0.00161294 8.25863 3.29288e-05 8.44201V31.5225C0.000218856 31.5534 0.00215582 31.5843 0.00582863 31.6149C0.00578035 31.62 0.00578035 31.6252 0.00582863 31.6303C0.0077414 31.6468 0.0101526 31.6632 0.0130664 31.6795C0.0340542 31.8077 0.0853241 31.9281 0.162075 32.0295C0.238826 32.131 0.338551 32.21 0.451915 32.2594L17.3511 39.9354C17.3827 39.9491 17.4151 39.9606 17.4482 39.9694C17.4912 39.9829 17.5353 39.9921 17.58 39.997C17.5887 39.9972 17.5974 39.9972 17.6061 39.997C17.6249 39.9978 17.6437 39.9978 17.6625 39.997C17.6722 39.9972 17.6819 39.9972 17.6915 39.997C17.706 39.9975 17.7205 39.9975 17.735 39.997C17.7593 39.9932 17.7835 39.988 17.8074 39.9816C17.857 39.9716 17.9056 39.9561 17.9522 39.9354L27.139 35.7637C27.4794 36.3929 27.8951 36.9865 28.4005 37.5249C29.8961 39.1099 31.9226 40 34.0353 40C36.148 40 38.1745 39.1099 39.6701 37.5249C41.1621 35.936 42 33.7835 42 31.5394C42 29.2953 41.1621 27.1429 39.6701 25.554C38.486 24.2971 36.9571 23.4716 35.3033 23.1958V8.44671C35.3054 8.26145 35.2443 8.08158 35.1315 7.94027C35.0187 7.79896 34.8616 7.70572 34.6892 7.67757L17.9508 0.0738218C17.8907 0.0458857 17.8274 0.0267581 17.7625 0.0169247C17.7557 0.0168242 17.749 0.0168242 17.7422 0.0169247C17.7243 0.0162225 17.7065 0.0162225 17.6886 0.0169247C17.663 0.0154834 17.6374 0.0154834 17.6118 0.0169247V2.4613e-05ZM17.651 1.60441L21.2008 3.21349L6.15548 10.0496C6.14078 10.0563 6.12629 10.0635 6.11203 10.0712L2.5636 8.45591L17.651 1.60441ZM23.0431 4.05183L27.3505 6.01159L12.0213 12.9724C11.8505 13.0418 11.7108 13.1773 11.6302 13.3517C11.5496 13.526 11.5341 13.7262 11.5868 13.9122V22.0697L10.0168 19.57C9.91886 19.4138 9.77061 19.3012 9.59989 19.253C9.42917 19.2049 9.24777 19.2246 9.08982 19.3086L7.24173 20.2884V11.2294L23.0431 4.05183ZM29.187 6.84383L32.7398 8.45741L17.651 15.3136L14.1011 13.6985L29.1479 6.86382C29.1611 6.85707 29.1742 6.85142 29.187 6.84383ZM1.44837 9.62502L5.79339 11.6003V21.536C5.79364 21.6668 5.82526 21.7952 5.88527 21.9094C5.94528 22.0235 6.0317 22.1196 6.13636 22.1884C6.24102 22.2572 6.36047 22.2966 6.48343 22.3027C6.60639 22.3089 6.7288 22.2817 6.8391 22.2237L9.16513 20.9883L11.6679 24.9756C11.7351 25.1133 11.8399 25.2262 11.9686 25.2995C12.0974 25.3728 12.2439 25.403 12.3891 25.3863C12.415 25.3826 12.4406 25.3775 12.4659 25.3709C12.4736 25.371 12.4813 25.371 12.4891 25.3709C12.5052 25.3663 12.5211 25.3614 12.5369 25.3557C12.6055 25.3322 12.6704 25.2979 12.7295 25.2541C12.8381 25.1737 12.9239 25.0632 12.9775 24.9347C13.0311 24.8061 13.0505 24.6644 13.0336 24.5249V14.8922L16.9268 16.6596V38.0664L1.44837 31.0319V9.62803V9.62502ZM33.855 9.62502V23.082C31.8054 23.1245 29.8508 24.0075 28.4005 25.5463C27.3436 26.67 26.6079 28.0887 26.2787 29.6382C26.2591 29.6445 26.2398 29.6517 26.2208 29.6597L24.4973 30.4443L20.2739 32.361C20.0972 32.4409 19.9576 32.5921 19.8859 32.7814C19.8142 32.9706 19.8162 33.1824 19.8915 33.3701C19.9668 33.5578 20.1092 33.7059 20.2874 33.7821C20.4656 33.8582 20.665 33.8562 20.8416 33.7762L25.065 31.8564L26.0759 31.3995C26.0615 32.3994 26.2164 33.4008 26.5336 34.3561L18.3751 38.0634V16.6566L33.855 9.62502ZM34.036 24.6064C35.7031 24.6064 37.3701 25.2833 38.6461 26.6401C39.2528 27.2829 39.7341 28.0465 40.0625 28.8872C40.391 29.7279 40.56 30.6292 40.56 31.5394C40.56 32.4496 40.391 33.3509 40.0625 34.1916C39.7341 35.0323 39.2528 35.7961 38.6461 36.439C38.0413 37.0834 37.3227 37.5946 36.5315 37.9434C35.7403 38.2923 34.892 38.472 34.0353 38.472C33.1786 38.472 32.3304 38.2923 31.5391 37.9434C30.7479 37.5946 30.0293 37.0834 29.4245 36.439C28.8178 35.7967 28.3365 35.0335 28.008 34.1933C27.6796 33.3531 27.5105 32.4524 27.5105 31.5426C27.5105 30.6328 27.6796 29.732 28.008 28.8917C28.3365 28.0515 28.8178 27.2885 29.4245 26.6463C30.0291 26.0012 30.7477 25.4895 31.5391 25.1405C32.3305 24.7915 33.1791 24.6121 34.036 24.6126V24.6064ZM24.7565 27.3076C24.6665 27.3123 24.5781 27.3346 24.4958 27.3737L20.2739 29.2936C20.1864 29.3332 20.1071 29.3906 20.0405 29.4628C19.974 29.5349 19.9214 29.6203 19.8859 29.714C19.8504 29.8077 19.8327 29.908 19.8336 30.009C19.8346 30.11 19.8543 30.2098 19.8915 30.3027C19.9288 30.3956 19.983 30.4799 20.0509 30.5506C20.1188 30.6213 20.1992 30.677 20.2874 30.7147C20.3756 30.7524 20.47 30.7713 20.5651 30.7703C20.6602 30.7693 20.7542 30.7485 20.8416 30.7089L25.065 28.7875C25.2228 28.7187 25.3527 28.5928 25.4317 28.4322C25.5108 28.2716 25.5339 28.0866 25.497 27.9096C25.4601 27.7327 25.3656 27.5753 25.2302 27.4652C25.0947 27.355 24.9269 27.2993 24.7565 27.3076ZM35.3815 27.4922C35.237 27.4891 35.0949 27.5322 34.9736 27.6156C34.8522 27.699 34.7571 27.819 34.7006 27.9603C34.6441 28.1016 34.6286 28.2577 34.6563 28.4084C34.6839 28.5591 34.7534 28.6975 34.8558 28.8059L36.6358 30.7658H29.6982C29.5062 30.7658 29.322 30.8467 29.1862 30.9909C29.0504 31.1352 28.9741 31.3309 28.9741 31.5349C28.9741 31.7389 29.0504 31.9345 29.1862 32.0787C29.322 32.223 29.5062 32.3041 29.6982 32.3041H36.6517L34.7877 34.2468C34.6504 34.3898 34.5722 34.5849 34.5703 34.7891C34.5684 34.9934 34.6429 35.1901 34.7776 35.3359C34.9122 35.4818 35.0959 35.5649 35.2882 35.5669C35.4805 35.5689 35.6657 35.4898 35.803 35.3468L38.8894 32.1255C39.0254 31.9835 39.1031 31.7905 39.1058 31.5881C39.1085 31.3856 39.036 31.1902 38.9039 31.0442L35.9 27.7369C35.8334 27.6614 35.7532 27.601 35.6641 27.5593C35.575 27.5175 35.4789 27.4936 35.3815 27.4922Z" fill="#34A853"/>
</svg>
