<svg width="38" height="26" viewBox="0 0 38 26" fill="none" xmlns="http://www.w3.org/2000/svg">
<path d="M33.4375 0.5H4.5625C3.51821 0.5 2.51669 0.895088 1.77827 1.59835C1.03984 2.30161 0.625 3.25544 0.625 4.25V21.75C0.625 22.7446 1.03984 23.6984 1.77827 24.4017C2.51669 25.1049 3.51821 25.5 4.5625 25.5H33.4375C34.4818 25.5 35.4833 25.1049 36.2217 24.4017C36.9602 23.6984 37.375 22.7446 37.375 21.75V4.25C37.375 3.25544 36.9602 2.30161 36.2217 1.59835C35.4833 0.895088 34.4818 0.5 33.4375 0.5ZM4.5625 3H33.4375C33.7856 3 34.1194 3.1317 34.3656 3.36612C34.6117 3.60054 34.75 3.91848 34.75 4.25V6.75H3.25V4.25C3.25 3.91848 3.38828 3.60054 3.63442 3.36612C3.88056 3.1317 4.2144 3 4.5625 3ZM33.4375 23H4.5625C4.2144 23 3.88056 22.8683 3.63442 22.6339C3.38828 22.3995 3.25 22.0815 3.25 21.75V11.75H34.75V21.75C34.75 22.0815 34.6117 22.3995 34.3656 22.6339C34.1194 22.8683 33.7856 23 33.4375 23Z" fill="#34A853"/>
</svg>
