<svg width="40" height="40" viewBox="0 0 40 40" fill="none" xmlns="http://www.w3.org/2000/svg">
<path d="M3.12386 1.25C2.09587 1.25 1.25 2.08121 1.25 3.12381V21.2515C1.25 22.3014 2.09587 23.1241 3.12386 23.1241H22.0869C23.0526 23.9042 24.2905 24.3741 25.6246 24.3741C28.7481 24.3741 31.2498 21.8495 31.2498 18.7502C31.2498 17.7481 30.988 16.8026 30.5259 15.9865L31.693 14.8195C32.0887 14.4228 31.8026 13.7333 31.2303 13.7514C31.0682 13.7561 30.9245 13.8171 30.8116 13.9333L29.7825 14.9587C28.7529 13.83 27.2677 13.1264 25.6246 13.1264V3.12381C25.6246 2.09585 24.7946 1.25 23.752 1.25H3.12386ZM3.12386 2.50124H9.99786V8.1251C9.99763 8.60825 10.5222 8.90898 10.9391 8.66466L13.4404 7.22543L15.9405 8.66466C16.3565 8.90473 16.8766 8.60536 16.878 8.1251V2.50124H23.752C24.1091 2.50124 24.3746 2.78383 24.3746 3.12381V13.2668C21.8558 13.8428 20.0007 16.0814 20.0007 18.7502C20.0007 19.9052 20.3476 20.9796 20.948 21.8741H3.12386C2.78142 21.8741 2.50126 21.6086 2.50126 21.2515V3.12381C2.50126 2.77894 2.76678 2.50124 3.12386 2.50124ZM11.2479 2.50124H15.6267V7.04477L13.7492 5.96564C13.5565 5.85485 13.3194 5.85485 13.1266 5.96564L11.2479 7.04477V2.50124ZM25.6246 14.3764C26.9307 14.3764 28.0962 14.9459 28.8962 15.8474L25.6246 19.1152L23.5677 17.0571C22.9597 16.4931 22.1199 17.3257 22.6814 17.9433L25.1827 20.4434C25.427 20.6882 25.8235 20.6882 26.0678 20.4434L29.5957 16.9167C29.8525 17.4744 29.9986 18.0938 29.9986 18.7502C29.9986 21.1739 28.0386 23.1241 25.6246 23.1241C23.2009 23.1241 21.2519 21.1617 21.2519 18.7502C21.2519 16.3412 23.2009 14.3764 25.6246 14.3764ZM5.00014 15.624C4.68717 15.624 4.37434 15.8326 4.37512 16.2502V19.3752C4.37358 20.2103 5.62668 20.2103 5.62515 19.3752V16.2502C5.62593 15.8326 5.31312 15.624 5.00014 15.624ZM7.50023 15.624C7.18726 15.624 6.87442 15.8326 6.8752 16.2502V19.3752C6.87365 20.2103 8.12677 20.2103 8.12524 19.3752V16.2502C8.12599 15.8326 7.81321 15.624 7.50023 15.624ZM10.0003 15.624C9.68735 15.624 9.37451 15.8326 9.37529 16.2502V19.3752C9.37373 20.2103 10.6269 20.2103 10.6253 19.3752V16.2502C10.6261 15.8326 10.3133 15.624 10.0003 15.624ZM12.7018 34.0446C14.3853 35.1779 16.1574 36.3186 17.7032 37.1916C19.249 38.0645 20.6266 38.7083 21.4863 38.7504C21.4981 38.7507 21.5076 38.7507 21.5191 38.7504C22.7658 38.7504 24.3802 38.3057 25.81 37.8789C26.525 37.6653 27.1999 37.4524 27.7523 37.2978C28.3046 37.1433 28.7019 37.0573 28.8961 37.0573H31.2607C31.3188 37.9999 32.0676 38.7504 33.0076 38.7504H36.2743C37.2539 38.7504 37.9647 37.9435 38.0322 36.9877L38.7463 26.8521C38.8186 25.8252 37.968 25.0015 36.9884 25.0015H33.0076C32.0071 25.0015 31.2497 25.8332 31.2497 26.8106V26.8753H28.8314L26.0591 25.6887C25.9819 25.6557 25.8978 25.6389 25.8137 25.6387H16.8315C15.577 25.6387 14.5227 26.5309 14.3253 27.7322L9.16763 24.7439C8.67089 24.4558 8.11964 24.3372 7.58438 24.3741C7.4061 24.3859 7.22926 24.4157 7.0571 24.462C6.36843 24.6472 5.75186 25.099 5.37003 25.7633C4.60125 27.1007 5.13504 28.7441 6.3582 29.5536C6.3582 29.5536 9.33483 31.7778 12.7018 34.0446ZM7.66735 25.6192C7.96137 25.5979 8.2665 25.6615 8.54508 25.8231L14.6232 29.3498C15.063 30.1088 15.8879 30.6266 16.8315 30.6266H23.0317C23.8652 30.6266 23.8652 29.3754 23.0317 29.3754H16.8315C16.0903 29.3754 15.5351 28.7959 15.5351 28.1351C15.5351 27.4744 16.0903 26.8888 16.8315 26.8888H25.6856L28.4628 28.0741C28.54 28.1072 28.6229 28.1252 28.7069 28.1254H31.2497V35.8074H28.8961C28.5155 35.8074 27.9981 35.93 27.4154 36.093C26.8326 36.256 26.1588 36.4688 25.4549 36.679C24.0536 37.0973 22.5813 37.4956 21.5375 37.4956C20.9756 37.4642 19.8141 36.9454 18.322 36.1028C16.8256 35.2577 15.0715 34.1299 13.4037 33.007C10.0679 30.7613 7.04538 28.5111 7.04538 28.5111C6.31152 27.9766 6.03552 27.1158 6.45515 26.3858C6.71743 25.9295 7.17736 25.6554 7.66735 25.6192ZM33.0076 26.2528H36.9885C37.2665 26.2528 37.521 26.4834 37.5012 26.7643L36.7858 36.8963C36.7587 37.2828 36.5179 37.5005 36.2743 37.5005H33.0076C32.7456 37.5005 32.4998 37.2763 32.4998 36.9426V26.8107C32.4998 26.4769 32.7407 26.2528 33.0076 26.2528ZM34.9083 35.0005C34.5631 35.0005 34.2833 35.2803 34.2833 35.6255C34.2833 35.9707 34.5631 36.2505 34.9083 36.2505C35.2535 36.2505 35.5333 35.9707 35.5333 35.6255C35.5333 35.2803 35.2535 35.0005 34.9083 35.0005Z" fill="#565D6D"/>
</svg>
