<svg width="156" height="156" viewBox="0 0 156 156" fill="none" xmlns="http://www.w3.org/2000/svg">
<path d="M132.863 23.1377C102.561 -7.16438 53.4393 -7.16438 23.1372 23.1377C-7.16487 53.4398 -7.16487 102.561 23.1372 132.863C53.4393 163.165 102.561 163.165 132.863 132.863C163.165 102.561 163.159 53.4398 132.863 23.1377ZM110.915 102.139C112.079 103.303 112.733 104.881 112.733 106.527C112.733 108.173 112.079 109.752 110.915 110.916C109.751 112.079 108.173 112.733 106.527 112.733C104.881 112.733 103.302 112.079 102.139 110.916L78 86.777L53.8613 110.916C53.2862 111.494 52.6025 111.953 51.8494 112.266C51.0963 112.579 50.2887 112.741 49.4731 112.741C48.6574 112.741 47.8498 112.579 47.0967 112.266C46.3436 111.953 45.6599 111.494 45.0848 110.916C44.5079 110.34 44.0502 109.656 43.7379 108.903C43.4257 108.15 43.2649 107.343 43.2649 106.527C43.2649 105.712 43.4257 104.905 43.7379 104.152C44.0502 103.399 44.5079 102.715 45.0848 102.139L69.2234 78.0004L45.0848 53.8618C43.9209 52.698 43.2671 51.1195 43.2671 49.4736C43.2671 47.8276 43.9209 46.2491 45.0848 45.0853C46.2486 43.9214 47.8271 43.2676 49.4731 43.2676C51.119 43.2676 52.6975 43.9214 53.8613 45.0853L78 69.2239L102.139 45.0853C102.715 44.509 103.399 44.0519 104.152 43.74C104.905 43.4281 105.712 43.2676 106.527 43.2676C107.342 43.2676 108.149 43.4281 108.902 43.74C109.655 44.0519 110.339 44.509 110.915 45.0853C111.491 45.6615 111.949 46.3457 112.26 47.0986C112.572 47.8516 112.733 48.6586 112.733 49.4736C112.733 50.2885 112.572 51.0955 112.26 51.8485C111.949 52.6014 111.491 53.2855 110.915 53.8618L86.7765 78.0004L110.915 102.139Z" fill="#E82E2E"/>
</svg>
