<svg width="26" height="18" viewBox="0 0 26 18" fill="none" xmlns="http://www.w3.org/2000/svg">
<path d="M8.4998 17.9998C8.23887 18.0014 7.98766 17.9009 7.7998 17.7198L0.299797 10.4398C0.205245 10.3479 0.129725 10.2382 0.0775489 10.1171C0.0253728 9.996 -0.00243776 9.8658 -0.00429494 9.73394C-0.00615211 9.60208 0.0179807 9.47115 0.0667252 9.34861C0.11547 9.22608 0.187872 9.11435 0.279797 9.0198C0.371722 8.92525 0.48137 8.84973 0.602482 8.79755C0.723593 8.74537 0.853796 8.71756 0.985655 8.7157C1.11751 8.71385 1.24845 8.73798 1.37098 8.78673C1.49351 8.83547 1.60524 8.90787 1.6998 8.9998L8.4998 15.5998L24.2998 0.279796C24.4907 0.0941446 24.7476 -0.00804554 25.0139 -0.00429481C25.2802 -0.000544086 25.5341 0.108841 25.7198 0.299797C25.9054 0.490753 26.0076 0.747637 26.0039 1.01394C26.0001 1.28024 25.8908 1.53415 25.6998 1.7198L9.1998 17.7198C9.01193 17.9009 8.76072 18.0014 8.4998 17.9998Z" fill="#34A853"/>
</svg>