<svg width="40" height="40" viewBox="0 0 40 40" fill="none" xmlns="http://www.w3.org/2000/svg">
<g clip-path="url(#clip0_430_3089)">
<path d="M28.8458 28.9255H15.2001C14.8212 28.9255 14.4579 28.775 14.19 28.5071C13.9221 28.2392 13.7715 27.8758 13.7715 27.4969C13.7715 27.118 13.9221 26.7547 14.19 26.4868C14.4579 26.2188 14.8212 26.0683 15.2001 26.0683H28.8458C29.2247 26.0683 29.5881 26.2188 29.856 26.4868C30.1239 26.7547 30.2744 27.118 30.2744 27.4969C30.2744 27.8758 30.1239 28.2392 29.856 28.5071C29.5881 28.775 29.2247 28.9255 28.8458 28.9255ZM36.7087 28.9255H36.3658C35.987 28.9255 35.6236 28.775 35.3557 28.5071C35.0878 28.2392 34.9373 27.8758 34.9373 27.4969C34.9373 27.118 35.0878 26.7547 35.3557 26.4868C35.6236 26.2188 35.987 26.0683 36.3658 26.0683H36.7087C36.8027 26.0699 36.8961 26.0526 36.9834 26.0177C37.0707 25.9828 37.1501 25.9308 37.2171 25.8649C37.2841 25.7989 37.3374 25.7203 37.3737 25.6336C37.41 25.5469 37.4287 25.4538 37.4287 25.3598V20.4569C37.4282 20.2961 37.3739 20.1402 37.2745 20.0138C37.1751 19.8875 37.0363 19.798 36.8801 19.7598H28.4573C27.5105 19.7598 26.6024 19.3845 25.9319 18.7161C25.2614 18.0477 24.8831 17.1408 24.8801 16.194V8.53691C24.8817 8.44343 24.8644 8.3506 24.8293 8.26393C24.7943 8.17726 24.7421 8.09854 24.676 8.03243C24.6099 7.96632 24.5312 7.91419 24.4445 7.87912C24.3579 7.84406 24.265 7.82679 24.1715 7.82833H7.33726C6.95838 7.82833 6.59502 7.67782 6.32711 7.40992C6.0592 7.14201 5.90869 6.77864 5.90869 6.39976C5.90869 6.02088 6.0592 5.65752 6.32711 5.38961C6.59502 5.1217 6.95838 4.97119 7.33726 4.97119H24.1715C24.6398 4.97119 25.1035 5.06342 25.5361 5.24262C25.9687 5.42181 26.3618 5.68446 26.6929 6.01557C27.024 6.34667 27.2866 6.73975 27.4658 7.17237C27.645 7.60498 27.7373 8.06865 27.7373 8.53691V16.1712C27.7373 16.2652 27.756 16.3583 27.7923 16.445C27.8286 16.5317 27.8818 16.6104 27.9488 16.6763C28.0158 16.7423 28.0953 16.7942 28.1826 16.8291C28.2699 16.8641 28.3633 16.8813 28.4573 16.8798H36.7087C36.9696 16.8832 37.2297 16.9099 37.4858 16.9598L37.7373 17.0398C38.4773 17.2561 39.1265 17.7079 39.5864 18.3267C40.0464 18.9455 40.2919 19.6974 40.2858 20.4683V25.3712C40.2798 26.3159 39.9003 27.2199 39.2301 27.8859C38.5599 28.5518 37.6535 28.9255 36.7087 28.9255Z" fill="#34A853"/>
<path d="M37.1999 19.8056C36.9062 19.8055 36.6198 19.7142 36.3803 19.5443C36.1407 19.3743 35.9599 19.1342 35.8628 18.857L33.5771 12.5027C33.5156 12.417 33.4351 12.3466 33.3419 12.297C33.2488 12.2475 33.1454 12.2201 33.0399 12.217H26.2857C25.9068 12.217 25.5434 12.0665 25.2755 11.7986C25.0076 11.5307 24.8571 11.1673 24.8571 10.7884C24.8571 10.4096 25.0076 10.0462 25.2755 9.77828C25.5434 9.51037 25.9068 9.35986 26.2857 9.35986H33.0399C33.6733 9.36233 34.2942 9.53562 34.8373 9.86146C35.3803 10.1873 35.8254 10.6536 36.1257 11.2113C36.1609 11.2777 36.1914 11.3464 36.2171 11.417L38.5028 17.897C38.6278 18.2548 38.6067 18.6474 38.4441 18.9897C38.2815 19.332 37.9905 19.5964 37.6342 19.7256C37.4934 19.7704 37.3475 19.7972 37.1999 19.8056ZM32.6057 35.0284C31.5772 35.0284 30.5718 34.7235 29.7167 34.1521C28.8616 33.5807 28.1951 32.7686 27.8015 31.8184C27.4079 30.8682 27.3049 29.8227 27.5056 28.814C27.7062 27.8053 28.2015 26.8787 28.9287 26.1515C29.6559 25.4242 30.5825 24.929 31.5912 24.7283C32.5999 24.5277 33.6454 24.6307 34.5956 25.0243C35.5458 25.4178 36.3579 26.0843 36.9293 26.9395C37.5007 27.7946 37.8057 28.8 37.8057 29.8284C37.8057 31.2076 37.2578 32.5302 36.2826 33.5054C35.3074 34.4806 33.9848 35.0284 32.6057 35.0284ZM32.6057 27.4856C32.14 27.4742 31.6816 27.6019 31.2888 27.8523C30.8961 28.1028 30.587 28.4646 30.4008 28.8916C30.2147 29.3185 30.1601 29.7913 30.2439 30.2495C30.3278 30.7076 30.5463 31.1304 30.8715 31.4638C31.1968 31.7972 31.6141 32.0261 32.07 32.1212C32.526 32.2163 32.9999 32.1734 33.4314 31.9979C33.8628 31.8224 34.2322 31.5222 34.4922 31.1358C34.7523 30.7494 34.8912 30.2942 34.8914 29.8284C34.8916 29.2168 34.6526 28.6294 34.2255 28.1917C33.7984 27.7539 33.2171 27.5005 32.6057 27.4856ZM11.4285 35.0284C10.4001 35.0284 9.39469 34.7235 8.53955 34.1521C7.68442 33.5807 7.01792 32.7686 6.62434 31.8184C6.23077 30.8682 6.12779 29.8227 6.32843 28.814C6.52908 27.8053 7.02433 26.8787 7.75156 26.1515C8.4788 25.4242 9.40535 24.929 10.414 24.7283C11.4227 24.5277 12.4683 24.6307 13.4185 25.0243C14.3686 25.4178 15.1808 26.0843 15.7522 26.9395C16.3235 27.7946 16.6285 28.8 16.6285 29.8284C16.6285 31.2076 16.0807 32.5302 15.1055 33.5054C14.1303 34.4806 12.8076 35.0284 11.4285 35.0284ZM11.4285 27.4856C10.9651 27.4856 10.5122 27.623 10.1269 27.8804C9.74162 28.1379 9.44132 28.5038 9.264 28.9319C9.08667 29.36 9.04028 29.831 9.13068 30.2855C9.22108 30.74 9.44421 31.1574 9.77187 31.4851C10.0995 31.8127 10.517 32.0359 10.9714 32.1263C11.4259 32.2167 11.897 32.1703 12.3251 31.993C12.7532 31.8156 13.1191 31.5153 13.3765 31.1301C13.634 30.7448 13.7714 30.2918 13.7714 29.8284C13.7714 29.2071 13.5245 28.6112 13.0852 28.1718C12.6458 27.7324 12.0499 27.4856 11.4285 27.4856Z" fill="#34A853"/>
<path d="M26.2855 28.9258C26.0975 28.9273 25.911 28.8914 25.737 28.8201C25.563 28.7489 25.4049 28.6437 25.272 28.5107C25.139 28.3778 25.0338 28.2197 24.9626 28.0457C24.8913 27.8717 24.8554 27.6852 24.8569 27.4972V15.0058C24.8569 14.6269 25.0074 14.2635 25.2754 13.9956C25.5433 13.7277 25.9066 13.5772 26.2855 13.5772C26.6644 13.5772 27.0278 13.7277 27.2957 13.9956C27.5636 14.2635 27.7141 14.6269 27.7141 15.0058V27.4972C27.7156 27.6852 27.6797 27.8717 27.6084 28.0457C27.5372 28.2197 27.432 28.3778 27.2991 28.5107C27.1661 28.6437 27.008 28.7489 26.834 28.8201C26.66 28.8914 26.4735 28.9273 26.2855 28.9258ZM11.6455 15.0515H2.28551C1.90662 15.0515 1.54326 14.901 1.27535 14.6331C1.00744 14.3652 0.856934 14.0018 0.856934 13.6229C0.856934 13.244 1.00744 12.8807 1.27535 12.6128C1.54326 12.3448 1.90662 12.1943 2.28551 12.1943H11.6455C12.0244 12.1943 12.3877 12.3448 12.6557 12.6128C12.9236 12.8807 13.0741 13.244 13.0741 13.6229C13.0741 14.0018 12.9236 14.3652 12.6557 14.6331C12.3877 14.901 12.0244 15.0515 11.6455 15.0515ZM13.4055 21.4286H8.51408C8.1352 21.4286 7.77183 21.2781 7.50392 21.0102C7.23601 20.7423 7.08551 20.3789 7.08551 20C7.08551 19.6212 7.23601 19.2578 7.50392 18.9899C7.77183 18.722 8.1352 18.5715 8.51408 18.5715H13.4055C13.7844 18.5715 14.1477 18.722 14.4157 18.9899C14.6836 19.2578 14.8341 19.6212 14.8341 20C14.8341 20.3789 14.6836 20.7423 14.4157 21.0102C14.1477 21.2781 13.7844 21.4286 13.4055 21.4286Z" fill="#34A853"/>
</g>
<defs>
<clipPath id="clip0_430_3089">
<rect width="40" height="40" fill="white"/>
</clipPath>
</defs>
</svg>
